<svg id="Calque_1" data-name="Calque 1" xmlns="http://www.w3.org/2000/svg" viewBox="0 0 236.99 62.04"><defs><style>.cls-1,.cls-2{fill:#e8485f;}.cls-2{font-size:34.51px;font-family:Brush Script MT;font-style:italic;}.cls-3{font-size:9.27px;fill:#000100;font-family:Century Gothic;letter-spacing:1px;}.cls-4{fill:#bc3a4d;opacity:0.56;}.cls-5{fill:#c13c4f;opacity:0.57;}.cls-6{fill:none;stroke:#9dc86c;stroke-miterlimit:10;}.cls-7{fill:#fff;}</style></defs><title>logo_C&amp;amp;M</title><path class="cls-1" d="M98.48,34.54C96.7,39,92,40.79,88.9,40.79c-5,0-7.36-2.22-7.36-8.27S84.47,15,93.27,15c3.16,0,5.61,1.24,5.61,4.5,0,1.78-.64,3.09-2.35,3.09a2.42,2.42,0,0,1-1.92-.87,3.76,3.76,0,0,0,1.55-3.09,1.87,1.87,0,0,0-2-2c-3.7,0-7,8.84-7,15.69,0,3.09.81,5.24,4,5.24a8.15,8.15,0,0,0,6.55-3.36Z" transform="translate(-1.84 -2.15)"/><path class="cls-1" d="M110.65,28.52a0.79,0.79,0,0,0,.37.07,10.7,10.7,0,0,0,5.18-2l0.3,0.91a10.61,10.61,0,0,1-5.95,2.79c-0.54,6.22-3.9,10.11-8,10.11-3.13,0-5.38-1.48-5.38-5.31s2.29-11.93,9.21-11.93C109.24,23.15,110.65,25,110.65,28.52Zm-2.89,1.85a1.25,1.25,0,0,1-.91-1.41,1.85,1.85,0,0,1,1-1.81c-0.07-1.41-.4-1.95-1.28-1.95-2.39,0-4.47,6.15-4.47,9.44,0,2.22.44,2.72,1.71,2.72C105.51,37.36,107.22,34.34,107.76,30.37Z" transform="translate(-1.84 -2.15)"/><path class="cls-1" d="M125.4,28.52a0.79,0.79,0,0,0,.37.07,10.7,10.7,0,0,0,5.18-2l0.3,0.91a10.61,10.61,0,0,1-5.95,2.79c-0.54,6.22-3.9,10.11-8,10.11-3.13,0-5.38-1.48-5.38-5.31s2.29-11.93,9.21-11.93C124,23.15,125.4,25,125.4,28.52Zm-2.89,1.85A1.25,1.25,0,0,1,121.6,29a1.85,1.85,0,0,1,1-1.81c-0.07-1.41-.4-1.95-1.28-1.95-2.39,0-4.47,6.15-4.47,9.44,0,2.22.44,2.72,1.71,2.72C120.26,37.36,122,34.34,122.51,30.37Z" transform="translate(-1.84 -2.15)"/><path class="cls-1" d="M143,23.45l-6.72,4.67a6.23,6.23,0,0,1,1.11-.13c2.49,0,3.7,1.78,3.7,3.93a5.71,5.71,0,0,1-.13,1.28l-0.37,1.68a5.51,5.51,0,0,0-.17,1.08,1.12,1.12,0,0,0,1.31,1.24,2.18,2.18,0,0,0,1.18-.2,3.7,3.7,0,0,1-3.13,3.46c-2.76,0-4.23-1.38-4.23-3.83a8.46,8.46,0,0,1,.2-1.75L136,33.56a5.59,5.59,0,0,0,.13-1.24c0-1-.34-1.61-1.21-1.61A4.23,4.23,0,0,0,132.43,32l-1.75,8.3h-4.84l4.87-22.85,5-.67-2.52,11.83,6.49-5.11H143Z" transform="translate(-1.84 -2.15)"/><path class="cls-1" d="M186.79,15.17a9.12,9.12,0,0,1,1.46-.12,7.32,7.32,0,0,1,2.55.47L190,33.23l7.39-17.71h4.84l-3.53,24.73h-4.84L196,25.16l-6.32,15.09h-4.6l0.67-15.16-5.61,15.16h-2.69l9.23-24.91" transform="translate(-1.84 -2.15)"/><path class="cls-1" d="M208.65,37.63c2.65,0,4.27-1.48,5.95-3.39h1.14c-1.92,3.09-4.77,6.22-9.24,6.22-3.16,0-5.24-1.55-5.24-5.34s2.18-12,9.07-12c3,0,3.7,1.55,3.7,3.23,0,3.86-3.7,6.86-7.73,7.09,0,0.47-.07.94-0.07,1.34C206.23,37.09,207,37.63,208.65,37.63Zm1.95-12.7c-1.71,0-3.36,3.6-4,6.92a5.63,5.63,0,0,0,4.87-5.54C211.44,25.47,211.23,24.93,210.6,24.93Z" transform="translate(-1.84 -2.15)"/><path class="cls-1" d="M221.55,37.63c2.65,0,4.27-1.48,5.95-3.39h1.14c-1.92,3.09-4.77,6.22-9.24,6.22-3.16,0-5.24-1.55-5.24-5.34s2.18-12,9.07-12c3,0,3.7,1.55,3.7,3.23,0,3.86-3.7,6.86-7.73,7.09,0,0.47-.07.94-0.07,1.34C219.13,37.09,219.94,37.63,221.55,37.63Zm1.95-12.7c-1.71,0-3.36,3.6-4,6.92a5.63,5.63,0,0,0,4.87-5.54C224.34,25.47,224.14,24.93,223.5,24.93Z" transform="translate(-1.84 -2.15)"/><path class="cls-1" d="M232.34,34.88a5,5,0,0,0-.17,1.18,1,1,0,0,0,1.18,1.21,2.68,2.68,0,0,0,.87-0.1c-0.94,2.89-2.42,3.29-3.56,3.29-2.35,0-3.36-1.65-3.36-3.8a8.28,8.28,0,0,1,.2-1.78l2.15-10.08h-1.11l0.27-1.34h1.11l1-4.64,5-.67s-0.5,2.29-1.14,5.31h2l-0.27,1.34h-2Z" transform="translate(-1.84 -2.15)"/><text class="cls-2" transform="translate(149.93 38.1)">&amp;</text><text class="cls-3" transform="translate(78.97 50.21)">La cuisine vous rapproche</text><circle class="cls-1" cx="31.02" cy="31.02" r="31.02"/><line class="cls-4" x1="27.77" y1="36.13" x2="34.27" y2="42.06"/><path class="cls-5" d="M63.53,28.56L51.94,17.49,28.87,49.25,23,46.43,20.6,48.59l4.85,4.51,0.12,0.36-4.24,2.78L29.47,64h0q0.82,0.09,1.64.14h0q0.84,0,1.7,0A31,31,0,0,0,63.53,28.56Z" transform="translate(-1.84 -2.15)"/><path class="cls-6" d="M29,54.92" transform="translate(-1.84 -2.15)"/><path class="cls-6" d="M20.11,46.43" transform="translate(-1.84 -2.15)"/><path class="cls-7" d="M57.71,28A12.41,12.41,0,0,0,43.18,15.74a12.42,12.42,0,0,0-20.65,0,12.42,12.42,0,1,0-2.9,24.63h0s0.27,5,.45,6.67A3.07,3.07,0,0,0,22.16,50c1.73,0.59,6.07,1.09,10.69,1.24,4.62-.15,9-0.64,10.69-1.24A3.07,3.07,0,0,0,45.63,47c0.18-1.66.45-6.67,0.45-6.67h0A12.42,12.42,0,0,0,57.71,28Z" transform="translate(-1.84 -2.15)"/><path class="cls-7" d="M43.41,51.65a44.1,44.1,0,0,1-10.78,1.26,39.51,39.51,0,0,1-10.32-1.26A3.26,3.26,0,0,1,20.2,50a22.25,22.25,0,0,0,.26,5c0.74,2,2.9,2.24,4.74,2.5a72.2,72.2,0,0,0,7.42.6,76.74,76.74,0,0,0,7.89-.6c1.85-.26,4-0.45,4.74-2.5a22.26,22.26,0,0,0,.26-5A3.26,3.26,0,0,1,43.41,51.65Z" transform="translate(-1.84 -2.15)"/><path class="cls-1" d="M38,23.28a5.91,5.91,0,0,0-5.09,2,5.91,5.91,0,0,0-5.09-2c-3.19.55-5,3.79-4.2,7.21a11.31,11.31,0,0,0,2.33,4.38,63.8,63.8,0,0,0,5.3,5.58c0.57,0.56,1.11,1.16,1.67,1.75,0.57-.59,1.1-1.19,1.67-1.75a63.81,63.81,0,0,0,5.3-5.58,11.31,11.31,0,0,0,2.33-4.38C43,27.07,41.15,23.84,38,23.28Z" transform="translate(-1.84 -2.15)"/><path class="cls-5" d="M41.85,26.37c-5.74-4.26-8.44,1.1-8.44,1.1-3.8-4.22-7-2.76-8-1.32-1.52,2.15-.69,4.47.85,6.88A28.41,28.41,0,0,0,30.5,37.9l3.24,3.35-0.89.94c-0.57-.59-1.1-1.19-1.67-1.75a63.8,63.8,0,0,1-5.3-5.58,11.31,11.31,0,0,1-2.33-4.38c-0.84-3.41,1-6.65,4.2-7.21a5.91,5.91,0,0,1,5.09,2,5.91,5.91,0,0,1,5.09-2,5.11,5.11,0,0,1,2.93,1.6l0.18,0.2" transform="translate(-1.84 -2.15)"/></svg>